<mxfile host="app.diagrams.net" modified="2021-08-30T02:31:30.237Z" agent="5.0 (Macintosh; Intel Mac OS X 10_15_7) AppleWebKit/537.36 (KHTML, like Gecko) Chrome/92.0.4515.131 Safari/537.36" etag="_4r0pfnS618GAeFzJlpx" version="15.0.3" type="github">
  <diagram id="zkmIKnFzEqQbSLsd3OjC" name="Page-1">
    <mxGraphModel dx="1186" dy="764" grid="1" gridSize="10" guides="1" tooltips="1" connect="1" arrows="1" fold="1" page="1" pageScale="1" pageWidth="827" pageHeight="1169" math="0" shadow="0">
      <root>
        <mxCell id="0" />
        <mxCell id="1" parent="0" />
        <mxCell id="6U7_e6E1dN6NbGg3FLzw-2" value="&lt;font style=&quot;font-size: 14px&quot;&gt;Data Library&lt;/font&gt;" style="shape=image;html=1;verticalAlign=top;verticalLabelPosition=bottom;labelBackgroundColor=#ffffff;imageAspect=0;aspect=fixed;image=https://cdn2.iconfinder.com/data/icons/circle-icons-1/64/bookshelf-128.png" vertex="1" parent="1">
          <mxGeometry x="90" y="589" width="128" height="128" as="geometry" />
        </mxCell>
        <mxCell id="6U7_e6E1dN6NbGg3FLzw-11" style="edgeStyle=orthogonalEdgeStyle;rounded=0;orthogonalLoop=1;jettySize=auto;html=1;shape=flexArrow;" edge="1" parent="1">
          <mxGeometry relative="1" as="geometry">
            <mxPoint x="618" y="749" as="sourcePoint" />
            <mxPoint x="154" y="749" as="targetPoint" />
            <Array as="points">
              <mxPoint x="618" y="819" />
              <mxPoint x="154" y="819" />
            </Array>
          </mxGeometry>
        </mxCell>
        <mxCell id="6U7_e6E1dN6NbGg3FLzw-7" value="Data Archive" style="shape=image;html=1;verticalAlign=top;verticalLabelPosition=bottom;labelBackgroundColor=#ffffff;imageAspect=0;aspect=fixed;image=https://cdn3.iconfinder.com/data/icons/tiny-line/48/Line_ui_icons_Svg-13-128.png" vertex="1" parent="1">
          <mxGeometry x="550" y="585" width="136" height="136" as="geometry" />
        </mxCell>
        <mxCell id="6U7_e6E1dN6NbGg3FLzw-12" value="Project plan" style="shape=image;html=1;verticalAlign=top;verticalLabelPosition=bottom;labelBackgroundColor=#ffffff;imageAspect=0;aspect=fixed;image=https://cdn1.iconfinder.com/data/icons/ecommerce-and-business-icon-set/128/project-plan.png" vertex="1" parent="1">
          <mxGeometry x="180" y="280" width="128" height="128" as="geometry" />
        </mxCell>
        <mxCell id="6U7_e6E1dN6NbGg3FLzw-15" value="环境保护数据目录" style="text;html=1;align=center;verticalAlign=middle;resizable=0;points=[];autosize=1;strokeColor=none;" vertex="1" parent="1">
          <mxGeometry x="230" y="623" width="110" height="20" as="geometry" />
        </mxCell>
        <mxCell id="6U7_e6E1dN6NbGg3FLzw-16" value="数据Agency/Vendor目录" style="text;html=1;align=center;verticalAlign=middle;resizable=0;points=[];autosize=1;strokeColor=none;" vertex="1" parent="1">
          <mxGeometry x="230" y="650" width="140" height="20" as="geometry" />
        </mxCell>
        <mxCell id="6U7_e6E1dN6NbGg3FLzw-19" value="机构数据资产" style="text;html=1;align=center;verticalAlign=middle;resizable=0;points=[];autosize=1;strokeColor=none;" vertex="1" parent="1">
          <mxGeometry x="690" y="623" width="90" height="20" as="geometry" />
        </mxCell>
        <mxCell id="6U7_e6E1dN6NbGg3FLzw-20" value="" style="outlineConnect=0;fontColor=#232F3E;gradientColor=none;fillColor=#A166FF;strokeColor=none;dashed=0;verticalLabelPosition=bottom;verticalAlign=top;align=center;html=1;fontSize=12;fontStyle=0;aspect=fixed;pointerEvents=1;shape=mxgraph.aws4.resource;" vertex="1" parent="1">
          <mxGeometry x="710" y="880" width="76" height="78" as="geometry" />
        </mxCell>
        <mxCell id="6U7_e6E1dN6NbGg3FLzw-21" value="Corporate data center" style="points=[[0,0],[0.25,0],[0.5,0],[0.75,0],[1,0],[1,0.25],[1,0.5],[1,0.75],[1,1],[0.75,1],[0.5,1],[0.25,1],[0,1],[0,0.75],[0,0.5],[0,0.25]];outlineConnect=0;gradientColor=none;html=1;whiteSpace=wrap;fontSize=12;fontStyle=0;shape=mxgraph.aws4.group;grIcon=mxgraph.aws4.group_corporate_data_center;strokeColor=#5A6C86;fillColor=none;verticalAlign=top;align=left;spacingLeft=30;fontColor=#5A6C86;dashed=0;" vertex="1" parent="1">
          <mxGeometry x="670" y="840" width="130" height="130" as="geometry" />
        </mxCell>
        <mxCell id="6U7_e6E1dN6NbGg3FLzw-22" value="" style="outlineConnect=0;dashed=0;verticalLabelPosition=bottom;verticalAlign=top;align=center;html=1;shape=mxgraph.aws3.data_pipeline;fillColor=#F58534;gradientColor=none;" vertex="1" parent="1">
          <mxGeometry x="330" y="380" width="67.5" height="81" as="geometry" />
        </mxCell>
      </root>
    </mxGraphModel>
  </diagram>
</mxfile>
